<svg xmlns="http://www.w3.org/2000/svg" width="900" height="430" viewBox="0 0 900 430" role="img" aria-labelledby="title desc">
<title id="title">Thalamus routing before and after benchmark</title>
<desc id="desc">Side-by-side measured results for direct hybrid retrieval and Thalamus-routed hybrid retrieval.</desc>
<rect width="900" height="430" fill="#101418"/>
<text x="42" y="45" fill="#f0f4f8" font-family="Arial" font-size="24">Thalamus routing: measured before / after</text>
<rect x="600" y="23" width="14" height="14" fill="#8b9bb4"/><text x="622" y="35" fill="#d4dce8" font-family="Arial" font-size="13">Direct hybrid</text>
<rect x="733" y="23" width="14" height="14" fill="#55c2a6"/><text x="755" y="35" fill="#d4dce8" font-family="Arial" font-size="13">Thalamus-routed</text>
<text x="42" y="92" fill="#d4dce8" font-family="Arial" font-size="14">Median latency (ms)</text>
<line x1="42" y1="315" x2="262" y2="315" stroke="#607086"/>
<rect x="67" y="127.6" width="68" height="187.4" fill="#8b9bb4"/>
<rect x="167" y="125.0" width="68" height="190.0" fill="#55c2a6"/>
<text x="67" y="340" fill="#d4dce8" font-family="Arial" font-size="12">29.487</text>
<text x="167" y="340" fill="#d4dce8" font-family="Arial" font-size="12">29.904</text>
<text x="330" y="92" fill="#d4dce8" font-family="Arial" font-size="14">Target rank (lower is better)</text>
<line x1="330" y1="315" x2="550" y2="315" stroke="#607086"/>
<rect x="355" y="125.0" width="68" height="190.0" fill="#8b9bb4"/>
<rect x="455" y="172.5" width="68" height="142.5" fill="#55c2a6"/>
<text x="355" y="340" fill="#d4dce8" font-family="Arial" font-size="12">4.000</text>
<text x="455" y="340" fill="#d4dce8" font-family="Arial" font-size="12">3.000</text>
<text x="618" y="92" fill="#d4dce8" font-family="Arial" font-size="14">Out-of-route candidates</text>
<line x1="618" y1="315" x2="838" y2="315" stroke="#607086"/>
<rect x="643" y="125.0" width="68" height="190.0" fill="#8b9bb4"/>
<rect x="743" y="125.0" width="68" height="190.0" fill="#55c2a6"/>
<text x="643" y="340" fill="#d4dce8" font-family="Arial" font-size="12">3.000</text>
<text x="743" y="340" fill="#d4dce8" font-family="Arial" font-size="12">3.000</text>
<text x="42" y="390" fill="#aeb9c8" font-family="Arial" font-size="12">Fixed synthetic repository; values are measured locally. Lower is better for target rank and out-of-route candidates.</text>
</svg>
